<svg width="100" height="100" viewBox="0 0 100 100" fill="none" xmlns="http://www.w3.org/2000/svg">
<g clip-path="url(#clip0)">
<path d="M18.6195 20.5517C18.1129 19.8367 17.1227 19.6654 16.4084 20.1705L5.84453 27.6254H1.58672C0.709766 27.6254 0 28.3359 0 29.2121C0 30.0885 0.709766 30.7988 1.58672 30.7988H4.14512L3.25566 33.4703C2.97832 34.3016 3.42773 35.2004 4.2582 35.4777C4.42559 35.5336 4.59453 35.5598 4.76035 35.5598C5.42519 35.5598 6.04336 35.1391 6.26504 34.4742L7.6873 30.2076L18.2369 22.7627C18.9527 22.2578 19.1246 21.2676 18.6195 20.5517Z" fill="#FF8087"/>
<path d="M80.792 86.127C100.097 77.7965 100.941 67.0703 99.5685 62.7225C97.9818 57.6979 85.5853 44.0781 44.991 46.5906L41.7514 54.2035C51.5693 52.7393 60.8916 53.0035 68.1121 54.6047C80.1043 57.2639 89.4531 62.3356 86.8746 69.0793C83.7609 77.2231 66.5328 82.5582 53.7545 82.5903C51.5885 82.5957 48.1353 82.4551 45.0724 81.7069L34.8488 88.8824C46.3932 93.7276 65.1514 92.876 80.792 86.127Z" fill="#AFD755"/>
<path d="M42.1811 52.9375L41.7514 54.2035C51.5693 52.7393 60.8916 53.0035 68.1121 54.6047C80.1043 57.2639 89.4531 62.3355 86.8746 69.0793C85.3563 73.0502 80.4723 76.3459 74.3947 78.692C85.8285 74.9434 95.1652 68.9451 92.9572 62.7223C90.3822 55.4664 71.007 46.5906 42.1811 52.9375Z" fill="#96BE4B"/>
<path d="M50.0477 30.2039C52.5395 5.95155 26.9748 0.254093 12.1639 16.5182C10.1477 18.732 10.7826 21.6932 14.4756 22.9762C14.8262 24.0455 17.208 29.6633 28.2639 28.0453C28.2639 28.0453 28.6606 30.9213 23.2723 50.2928C20.6424 59.7473 18.0492 74.1601 27.768 84.2756C29.4535 86.0301 31.6615 87.4808 34.2516 88.6369C38.9453 86.7719 43.4809 84.6799 47.6621 82.2016C45.1533 81.8504 42.6024 81.1996 40.8586 79.9879C32.5037 74.182 36.7981 65.3894 42.016 54.1691C43.4869 51.0533 49.1893 38.5576 50.0477 30.2039Z" fill="#AFD755"/>
<path d="M46.8092 78.2693C33.6768 87.7836 19.3125 84.1549 16.3965 75.4926C14.1486 68.815 18.0494 63.9457 21.5203 61.0697L23.7022 50.8551C16.3635 53.731 10.1819 59.3605 7.9338 64.5176C0.702945 81.1054 17.851 102.467 46.2803 87.7896C69.4742 75.815 62.1018 49.4107 78.584 40.7607C79.1844 40.4457 78.9088 39.5263 78.2346 39.5988C60.2045 41.5387 59.0754 69.3824 46.8092 78.2693Z" fill="#AFD755"/>
<path d="M78.5838 40.7607C76.2961 40.9047 68.0979 42.2269 62.1477 59.549C59.974 65.8764 54.0816 89.4328 24.859 89.0361C13.3957 88.8805 6.08242 79.1189 6.49707 69.5654C4.23301 84.9961 20.6766 101.008 46.2801 87.7899C69.474 75.8152 62.1018 49.4109 78.5838 40.7607Z" fill="#96BE4B"/>
<path d="M33.6568 83.6857C23.8785 70.2414 33.2844 51.2857 37.1564 43.417C41.2555 35.0865 39.801 24.5842 39.801 24.5842C37.0242 26.3791 28.264 28.0455 28.264 28.0455C28.264 28.0455 28.6607 30.9215 23.2724 50.293C20.7017 59.535 18.1982 73.5039 27.1635 83.5762C29.1764 83.9309 31.3635 83.9795 33.6568 83.6857Z" fill="#FFDC64"/>
<path d="M32.3961 20.4852C23.4986 23.8828 17.6334 24.0666 14.3266 22.8898C19.2063 34.2934 39.8082 24.9451 39.8008 24.5844C39.7018 19.7811 36.2307 19.0207 32.3961 20.4852Z" fill="#FFC850"/>
<path d="M28.1649 18.4258C27.0693 18.4258 26.1815 17.5379 26.1815 16.4424V14.8557C26.1815 13.7601 27.0693 12.8723 28.1649 12.8723C29.2604 12.8723 30.1483 13.7601 30.1483 14.8557V16.4424C30.1483 17.5379 29.2604 18.4258 28.1649 18.4258Z" fill="#4B3F4E"/>
</g>
<defs>
<clipPath id="clip0">
<rect width="100" height="100" fill="white"/>
</clipPath>
</defs>
</svg>
